<svg xmlns="http://www.w3.org/2000/svg" version="1.1" xmlns:xlink="http://www.w3.org/1999/xlink" xmlns:svgjs="http://svgjs.com/svgjs" width="1440" height="560" preserveAspectRatio="none" viewBox="0 0 1440 560"><g mask="url(&quot;#SvgjsMask1099&quot;)" fill="none"><rect width="1440" height="560" x="0" y="0" fill="url(#SvgjsLinearGradient1100)"></rect><path d="M215.18 575.64C416.4 551.68 539.91 101.52 872.23 100.95 1204.55 100.38 1351.35 369.91 1529.28 375.35" stroke="rgba(255, 255, 255, 0)" stroke-width="2"></path><path d="M714.93 604.38C884.39 551.46 924.43 73.31 1176.21 64.49 1428 55.67 1517.39 197.53 1637.5 198.89" stroke="rgba(255, 255, 255, 0)" stroke-width="2"></path><path d="M729.79 585.57C855.69 531.09 794.48 141.09 1044.86 136.32 1295.25 131.55 1514.75 253.42 1675.01 253.92" stroke="rgba(255, 255, 255, 0)" stroke-width="2"></path><path d="M55.2 591.3C272.34 567.02 407.78 89.68 770.29 88.86 1132.81 88.04 1294.94 347.93 1485.39 352.06" stroke="rgba(255, 255, 255, 0)" stroke-width="2"></path><path d="M292.66 575.06C474.18 548.78 570.02 123.23 868.46 120.42 1166.9 117.61 1296.12 259.42 1444.26 260.42" stroke="rgba(255, 255, 255, 0)" stroke-width="2"></path></g><defs><mask id="SvgjsMask1099"><rect width="1440" height="560" fill="#ffffff"></rect></mask><linearGradient x1="15.28%" y1="-39.29%" x2="84.72%" y2="139.29%" gradientUnits="userSpaceOnUse" id="SvgjsLinearGradient1100"><stop stop-color="#0e2a47" offset="0"></stop><stop stop-color="rgba(2, 16, 34, 1)" offset="1"></stop></linearGradient></defs></svg>