<svg xmlns="http://www.w3.org/2000/svg" version="1.1" xmlns:xlink="http://www.w3.org/1999/xlink" xmlns:svgjs="http://svgjs.com/svgjs" width="1440" height="560" preserveAspectRatio="none" viewBox="0 0 1440 560"><g mask="url(&quot;#SvgjsMask1000&quot;)" fill="none"><rect width="1440" height="560" x="0" y="0" fill="#0e2a47" data-darkreader-inline-fill="" style="--darkreader-inline-fill:#0b2239;"></rect><path d="M 0,45 C 57.6,75.2 172.8,184.6 288,196 C 403.2,207.4 460.8,88 576,102 C 691.2,116 748.8,271.8 864,266 C 979.2,260.2 1036.8,77.2 1152,73 C 1267.2,68.8 1382.4,210.6 1440,245L1440 560L0 560z" fill="#184a7e" data-darkreader-inline-fill="" style="--darkreader-inline-fill:#133b65;"></path><path d="M 0,444 C 96,412.2 288,282.4 480,285 C 672,287.6 768,450.2 960,457 C 1152,463.8 1344,346.6 1440,319L1440 560L0 560z" fill="#2264ab" data-darkreader-inline-fill="" style="--darkreader-inline-fill:#1b5089;"></path></g><defs><mask id="SvgjsMask1000"><rect width="1440" height="560" fill="#ffffff" data-darkreader-inline-fill="" style="--darkreader-inline-fill:#181a1b;"></rect></mask></defs></svg>